<?xml version="1.0" encoding="UTF-8"?>
<svg id="Layer_1" data-name="Layer 1" xmlns="http://www.w3.org/2000/svg" viewBox="0 0 328.21 498.47">
  <defs>
    <style>
      .cls-1 {
        stroke-width: 1.65px;
      }

      .cls-1, .cls-2, .cls-3, .cls-4, .cls-5, .cls-6 {
        fill: #020202;
      }

      .cls-1, .cls-3, .cls-4, .cls-5, .cls-6, .cls-7 {
        stroke: #020202;
      }

      .cls-1, .cls-5, .cls-7 {
        stroke-miterlimit: 10;
      }

      .cls-3 {
        stroke-miterlimit: 10;
        stroke-width: 1.65px;
      }

      .cls-4 {
        stroke-miterlimit: 10;
        stroke-width: 1.65px;
      }

      .cls-5, .cls-7 {
        stroke-width: 1.65px;
      }

      .cls-6 {
        stroke-miterlimit: 10;
        stroke-width: 1.65px;
      }

      .cls-7 {
        fill: none;
      }
    </style>
  </defs>
  <g id="vetorização">
    <g>
      <path class="cls-5" d="M227.02,211.76c-10.65,0-10.63-16.56,0-16.56h26.42c-2.19-19.15-17.95-32.35-17.95-32.35,0,0,0-16.36-2.54-25.8-2.54-9.45-29.11,19.88-29.11,19.88,0,0-15.61-20.24-19.26-21.75s-13.45,24.29-14.53,49.38,12.7,37.09,12.7,37.09c0,0-19.96-1.98-37.26.56-18.85,2.77-20.67,15.79-37.12,34.96-16.45,19.17-26.85-2.12-26.85-2.12,0,0-2.69-5.63-5.76-5.22-4.63.63-4.45,5.7-2.81,8.88.48.92,8.41,15.07,21.66,15.93,16.51,1.07,32.2-24.11,32.2-24.11,0,0-1.26,11,3.93,21.01,5.21,10.01,11.72,13.5,15.61,13.99,3.09.4,5.59-2.78,5.76-7.64.14-3.63-.84-8.88-.84-8.88l19.26.42s-.6,14.88,3.66,15.79c6.7,1.43,34.03-41.45,35.44-49.91,0,0,33.64.13,42.07-23.56h-24.68Z"/>
      <ellipse class="cls-7" cx="231.74" cy="203.49" rx="4.24" ry="8.01"/>
      <path class="cls-5" d="M251.67,211.76c2.9-6.75,1.89-15.65,1.89-15.65"/>
      <rect class="cls-5" x="236.68" y="195.88" width="14.03" height="14.97"/>
      <rect class="cls-5" x="212.46" y="196.01" width="14.03" height="14.97"/>
      <polygon class="cls-4" points="233.58 195.78 237.26 192.72 240.31 196.41 236.63 199.47 233.58 195.78"/>
      <polygon class="cls-3" points="233.28 211.86 235.67 207.71 239.81 210.1 237.42 214.25 233.28 211.86"/>
      <polygon class="cls-3" points="222.55 196.89 224.94 192.74 229.08 195.13 226.69 199.28 222.55 196.89"/>
      <polygon class="cls-6" points="223.15 210.49 226.99 207.63 229.84 211.47 226.01 214.33 223.15 210.49"/>
      <rect class="cls-5" x="248.33" y="195.63" width="4.78" height="10.25"/>
      <rect class="cls-5" x="246.89" y="200.14" width="5.04" height="9.38"/>
    </g>
  </g>
  <g id="Layer_3" data-name="Layer 3">
    <g>
      <path class="cls-1" d="M14.08,206.67c.91,1.57,45.09,38.74,136.52,5.06,0,0-93.53,13.88-92.23-11.18.52-9.94,27.71-12.62,51.58-8.12,24.79,4.68,42.45,13.38,42.45,13.38,0,0-36.6-33.41-54.1-65.46-16.85-30.84-16.72-63.06-3.39-68.73,9.71-4.13,20.89,5.73,30.55,18.42,14.65,19.25,23.69,42.16,26.85,66.13l6.57,50.47s9.25-21.34-.05-80.38C149.54,67.24,93.96-2.49,80.58,1.72c-21.98,6.92-29.14,77.2,5.14,140.27,23.04,42.38,66.69,63.81,66.69,63.81,0,0-32.21-26.57-73.17-24.64-40.16,1.9-67.93,20.71-65.14,25.48v.02h-.01Z"/>
      <path class="cls-1" d="M121.83,190.01s-39.42-10.03-65.95-33.3C19.33,124.59,23.48,88.9,25.94,80.59c2.68-9,43.54,13.21,56.3,37.03,16.91,31.61,49.67,76.25,49.67,76.25,0,0-67-98.34-79.25-72.52-12.9,27.2,68.96,68.84,69.18,68.64h-.01v.02Z"/>
    </g>
    <ellipse class="cls-1" cx="168.7" cy="296.06" rx="73.71" ry="4.43"/>
    <g>
      <path class="cls-2" d="M77.43,419.43c-4.02,3.16-8.85,5.63-14.49,7.4s-11.82,2.66-18.55,2.66c-6.25,0-12.07-1.19-17.45-3.58-5.37-2.39-10.06-5.65-14.08-9.78-4.02-4.13-7.16-8.95-9.45-14.45-2.28-5.51-3.42-11.38-3.42-17.62s1.14-12.1,3.42-17.57c2.27-5.47,5.42-10.26,9.45-14.33,4.02-4.08,8.72-7.3,14.08-9.65,5.37-2.35,11.18-3.52,17.45-3.52,6.72,0,12.9.89,18.55,2.66,5.64,1.77,10.47,4.24,14.49,7.4l-10.89,12.49c-3.09-1.92-6.5-3.39-10.25-4.4-3.75-1-7.71-1.5-11.88-1.5-3.64,0-7,.75-10.14,2.25-3.14,1.5-5.85,3.52-8.17,6.07s-4.16,5.54-5.5,8.96c-1.35,3.43-2.02,7.12-2.02,11.04s.67,7.65,2.02,11.15,3.19,6.57,5.5,9.2,5.04,4.71,8.17,6.24c3.14,1.55,6.5,2.31,10.14,2.31,5.56,0,10.78-.89,15.64-2.66v-26.13h17.39v35.37h0Z"/>
      <path class="cls-2" d="M190.41,427.54h-18.55l-18.42-58.73-19.94,58.73h-18.55l-27.12-86.7h18.2l19.12,59.76,19.58-59.76h18.2l19.13,59.76,19.47-59.76h18.42l-29.55,86.7h.01Z"/>
      <path class="cls-2" d="M232.38,340.83h17.39v86.7h-17.39v-86.7Z"/>
      <path class="cls-2" d="M275.24,340.83h17.39v70.05h35.58v16.65h-52.97v-86.7h0Z"/>
    </g>
    <g>
      <path class="cls-2" d="M3.03,475.72c0-3.13.57-6.05,1.71-8.79,1.14-2.74,2.72-5.13,4.73-7.17,2-2.05,4.35-3.65,7.04-4.83,2.69-1.17,5.59-1.76,8.72-1.76,3.36,0,6.45.44,9.27,1.33,2.82.89,5.23,2.13,7.24,3.7l-5.44,6.24c-1.55-.97-3.26-1.69-5.13-2.19-1.88-.5-3.85-.75-5.93-.75-1.81,0-3.51.38-5.07,1.13-1.56.75-2.93,1.76-4.09,3.04-1.16,1.27-2.07,2.76-2.76,4.48-.67,1.72-1.01,3.56-1.01,5.53s.34,3.83,1.01,5.58,1.59,3.29,2.76,4.59,2.52,2.35,4.09,3.13c1.56.77,3.26,1.16,5.07,1.16,2.08,0,4.07-.25,5.93-.75s3.59-1.23,5.13-2.19l5.44,6.24c-2,1.58-4.42,2.82-7.24,3.71s-5.91,1.33-9.27,1.33c-3.14,0-6.04-.6-8.72-1.8-2.69-1.19-5.04-2.82-7.04-4.89-2-2.06-3.59-4.47-4.73-7.23-1.14-2.75-1.71-5.7-1.71-8.82h0v-.02Z"/>
      <path class="cls-2" d="M56.45,475.67c0-3.13.58-6.05,1.74-8.79s2.76-5.13,4.81-7.17c2.05-2.04,4.46-3.65,7.21-4.83,2.76-1.17,5.76-1.76,9.01-1.76s6.24.59,9.01,1.76c2.76,1.18,5.16,2.79,7.21,4.83,2.05,2.04,3.65,4.43,4.81,7.17s1.74,5.67,1.74,8.79-.58,6.06-1.74,8.82c-1.16,2.75-2.76,5.16-4.81,7.23s-4.46,3.71-7.21,4.91c-2.76,1.22-5.76,1.82-9.01,1.82s-6.24-.6-9.01-1.82c-2.76-1.22-5.17-2.85-7.21-4.91-2.05-2.06-3.65-4.47-4.81-7.23-1.16-2.75-1.74-5.7-1.74-8.82ZM65.71,475.67c0,1.97.34,3.83,1.01,5.58s1.61,3.29,2.84,4.59,2.65,2.35,4.28,3.13c1.64.77,3.43,1.16,5.35,1.16s3.72-.39,5.35-1.16,3.08-1.81,4.28-3.13c1.22-1.31,2.16-2.84,2.84-4.59s1.01-3.62,1.01-5.58-.34-3.82-1.01-5.55c-.67-1.74-1.61-3.24-2.84-4.51s-2.65-2.29-4.28-3.04c-1.64-.75-3.43-1.13-5.35-1.13s-3.72.38-5.35,1.13-3.08,1.76-4.28,3.04c-1.22,1.27-2.16,2.77-2.84,4.51-.67,1.74-1.01,3.58-1.01,5.55Z"/>
      <path class="cls-2" d="M140.82,465.38c-1.16-.85-2.43-1.65-3.83-2.4s-3.03-1.13-4.92-1.13c-1.27,0-2.32.42-3.16,1.24s-1.24,1.81-1.24,2.92c0,.77.45,1.48,1.36,2.11s2.05,1.3,3.42,1.99,2.85,1.46,4.43,2.29c1.58.83,3.07,1.81,4.43,2.94s2.51,2.47,3.42,3.99,1.35,3.34,1.35,5.47c0,1.5-.26,3.06-.78,4.65-.52,1.6-1.35,3.07-2.5,4.4s-2.6,2.43-4.38,3.3c-1.77.86-3.94,1.3-6.49,1.3-2.35,0-4.38-.23-6.05-.69-1.68-.47-3.14-1.05-4.34-1.76-1.22-.72-2.25-1.5-3.1-2.36-.85-.86-1.61-1.73-2.31-2.57l5.22-6.59c1.31,1.47,2.83,2.72,4.55,3.76,1.72,1.05,3.74,1.56,6.05,1.56,1.77,0,3.01-.43,3.68-1.3s1.01-1.92,1.01-3.15c0-1-.45-1.88-1.36-2.63s-2.04-1.48-3.4-2.19-2.82-1.47-4.38-2.25c-1.56-.8-3.02-1.71-4.38-2.75s-2.49-2.29-3.4-3.73-1.36-3.17-1.36-5.17c0-1.89.32-3.65.96-5.29s1.55-3.06,2.73-4.25,2.6-2.14,4.26-2.83c1.66-.69,3.5-1.05,5.5-1.05,1.5,0,2.94.16,4.32.49,1.36.33,2.65.75,3.83,1.27,1.17.52,2.24,1.1,3.19,1.74s1.74,1.24,2.4,1.82l-4.75,6.88v-.02h.02Z"/>
      <path class="cls-2" d="M163.59,455.11h10.89c2.56,0,4.85.26,6.92.78,2.06.52,3.82,1.33,5.24,2.43s2.53,2.52,3.31,4.27,1.16,3.84,1.16,6.28c0,2.85-.42,5.22-1.27,7.08-.85,1.88-1.98,3.35-3.4,4.46-1.41,1.1-3.06,1.88-4.92,2.32s-3.85.66-5.93.66h-3.31v15.09h-8.69v-43.35h-.01ZM172.27,463.43v11.61h2.25c1.11,0,2.13-.09,3.05-.26.91-.17,1.67-.49,2.31-.96s1.11-1.1,1.44-1.91.49-1.83.49-3.07c0-1.97-.65-3.37-1.93-4.2-1.3-.83-3.1-1.24-5.41-1.24h-2.19v.02Z"/>
      <path class="cls-2" d="M208.33,455.11h8.69v35.02h17.8v8.33h-26.47v-43.35h-.01Z"/>
      <path class="cls-2" d="M273.05,489.32h-15.7l-3.25,9.14h-9.33l15.75-43.35h9.1l16.52,43.35h-9.5l-3.59-9.14h-.01,0ZM260.35,481h9.56l-4.81-13.18-4.75,13.18h0Z"/>
      <path class="cls-2" d="M304.16,480.54l-15.12-25.44h10.08l9.39,16.65,9.62-16.65h10.08l-15.36,25.44v17.92h-8.69v-17.92Z"/>
    </g>
  </g>
</svg>