<?xml version="1.0" encoding="UTF-8"?>
<svg id="Manequim_FEM" xmlns="http://www.w3.org/2000/svg" version="1.1" viewBox="0 0 1943.55 1876">
  <!-- Generator: Adobe Illustrator 29.6.0, SVG Export Plug-In . SVG Version: 2.1.1 Build 207)  -->
  <defs>
    <style>
      .st0 {
        stroke-width: 2.9px;
      }

      .st0, .st1, .st2, .st3, .st4, .st5, .st6, .st7, .st8, .st9, .st10 {
        fill: none;
        stroke: #fff;
      }

      .st0, .st1, .st3, .st4, .st5, .st6, .st7, .st8, .st10 {
        stroke-miterlimit: 10;
      }

      .st11 {
        fill: #a6a6a6;
      }

      .st1 {
        stroke-width: 2.72px;
      }

      .st2 {
        stroke-miterlimit: 10;
        stroke-width: 2.79px;
      }

      .st3 {
        stroke-width: 2.81px;
      }

      .st4 {
        stroke-width: 2.74px;
      }

      .st5 {
        stroke-width: 2.67px;
      }

      .st6 {
        stroke-width: 2.68px;
      }

      .st7 {
        stroke-width: 2.75px;
      }

      .st8 {
        stroke-width: 3px;
      }

      .st9 {
        stroke-miterlimit: 10;
        stroke-width: 2.57px;
      }

      .st10 {
        stroke-width: 2.78px;
      }
    </style>
  </defs>
  <g id="Base_-_D">
    <path id="Base_-_D1" data-name="Base_-_D" class="st11" d="M1916.28,351.24l-46.98-1.53s-17.19,4.76-36.08,6.3c0,0-2.32,3.67,23.15,11.73,20.42,6.47,1.53,11.39,1.53,11.39-7.28,1.18-14.17-1.83-29.11-3.87,0,0-29-3.39-46.34-17.35-12.7-10.22-135.7,6-135.7,6,0,0-78.28,16.1-130.53,10.82-52.26-5.28-37.36-.94-72.72.21-35.37,1.15-124.3-1.02-124.3-1.02,0,0-90.56-1.02-108.94,23.81-18.38,24.83-41.53,126.89-41.53,126.89,0,0-19.06,50-20.09,98.99-1.02,48.99,27.58,79.94,41.54,147.98,13.95,68.03,18.38,87.43,20.08,146.95,1.7,59.54,2.04,145.59-5.1,181.32-7.15,35.71-16.69,153.42-16.69,153.42,0,0,5.84,94.42,17.03,141.18,10.91,45.59-1.71,105.79-10.9,151.38-9.19,45.58-12.59,121.61-12.59,121.61,0,0-1.28,69.65-2.05,83.17-.76,13.53,3.32,66.59,6.9,75.26,3.57,8.67,17.61,27.3,17.61,35.72s-8.08,13.23-11.66,14.01c-3.57.79-65.42,0-65.42,0,0,0-7.53-.34-10.98-12.84,0,0-4.48-8.3,8.81-29.09,2.94-4.59,2.42-45.63,2.42-45.63,0,0,3.41-79.94-2.38-132.66-5.79-52.73-22.47-173.83-22.47-173.83,0,0-7.46-57.42,4.09-117.02,6.13-31.64-10.9-155.46-15.32-196.96l-20.09-189.48s-.51-45.85-30.04-46.08h-1.02c-29.54.23-30.05,46.08-30.05,46.08l-20.09,189.48c-4.42,41.5-21.44,165.32-15.32,196.96,11.55,59.61,4.09,117.02,4.09,117.02,0,0-16.68,121.1-22.47,173.83-5.79,52.72-2.38,132.66-2.38,132.66,0,0-.51,41.04,2.42,45.63,13.29,20.78,8.81,29.09,8.81,29.09-3.45,12.5-10.98,12.84-10.98,12.84,0,0-61.85.79-65.42,0-3.58-.78-11.66-5.6-11.66-14.01s14.04-27.05,17.61-35.72c3.58-8.67,7.66-61.73,6.9-75.26-.77-13.52-2.04-83.17-2.04-83.17,0,0-3.41-76.03-12.6-121.61-9.19-45.59-21.8-105.79-10.89-151.38,11.19-46.76,17.02-141.18,17.02-141.18,0,0-9.53-117.7-16.68-153.42-7.15-35.72-6.81-121.78-5.11-181.32,1.7-59.53,6.13-78.92,20.09-146.95,13.95-68.04,42.55-98.99,41.53-147.98-1.02-48.98-20.09-98.99-20.09-98.99,0,0-23.15-102.05-41.53-126.89-18.38-24.83-108.94-23.81-108.94-23.81,0,0-88.93,2.17-124.29,1.02-35.37-1.15-20.47-5.49-72.73-.21-52.25,5.28-130.53-10.82-130.53-10.82,0,0-123-16.22-135.7-6-17.34,13.96-46.34,17.35-46.34,17.35-14.94,2.04-21.83,5.05-29.11,3.87,0,0-18.89-4.93,1.53-11.39,25.47-8.06,23.15-11.73,23.15-11.73-18.89-1.54-36.08-6.3-36.08-6.3l-46.98,1.53s-29.79.34-26.5-4.43c3.28-4.76,13.73-6.46,13.73-6.46l58.05-6.13s15.48-3.58,24.68-6.97c9.19-3.4,69.78-4.77,69.78-4.77,0,0,88.68-7.31,117.28-11.73,28.6-4.43,89.12-8.72,105.19-8.84,16.68-.13,92.09,4.21,92.09,4.21,0,0,47.49-4.25,74.21-4.94,26.72-.68,53.62,5.28,98.38-5.78,44.77-11.06,111.32,3.23,111.32,3.23,0,0,39.32,7.99,62.98-12.58,23.66-20.58,28.72-48.41,29.32-61.59.6-13.18-.53-18.57-4.94-27.98-3.82-8.17-29.87-55.62-21.19-125.79C978.15,4.25,1034.7.24,1040.66.01c.09,0,.17,0,.23,0h.28c5.97.24,62.51,4.26,70.73,70.7,8.68,70.17-17.37,117.61-21.19,125.79-4.41,9.41-5.53,14.8-4.94,27.98.6,13.18,5.66,41.01,29.32,61.59,23.66,20.57,62.98,12.58,62.98,12.58,0,0,66.55-14.29,111.32-3.23,44.77,11.05,71.66,5.1,98.38,5.78,26.73.69,74.21,4.94,74.21,4.94,0,0,75.41-4.34,92.09-4.21,16.07.12,76.6,4.42,105.19,8.84,28.6,4.42,117.28,11.73,117.28,11.73,0,0,60.59,1.37,69.79,4.77,9.19,3.4,24.68,6.97,24.68,6.97l58.04,6.13s10.45,1.7,13.74,6.46c3.28,4.77-26.51,4.43-26.51,4.43h0Z"/>
    <path id="Base_-_D2" data-name="Base_-_D" class="st11" d="M1911.72,350.7l-46.98-1.53s-17.19,4.76-36.08,6.3c0,0-2.32,3.67,23.15,11.73,20.42,6.47,1.53,11.39,1.53,11.39-7.28,1.18-14.17-1.83-29.11-3.87,0,0-29-3.39-46.34-17.35-12.7-10.22-135.7,6-135.7,6,0,0-78.28,16.1-130.53,10.82-52.26-5.28-37.36-.94-72.72.21-35.37,1.15-124.3-1.02-124.3-1.02,0,0-90.56-1.02-108.94,23.81-18.38,24.83-41.53,126.89-41.53,126.89,0,0-19.06,50-20.09,98.99-1.02,48.99,27.58,79.94,41.54,147.98,13.95,68.03,18.38,87.43,20.08,146.95,1.7,59.54,2.04,145.59-5.1,181.32-7.15,35.71-16.69,153.42-16.69,153.42,0,0,5.84,94.42,17.03,141.18,10.91,45.59-1.71,105.79-10.9,151.38-9.19,45.58-12.59,121.61-12.59,121.61,0,0-1.28,69.65-2.05,83.17-.76,13.53,3.32,66.59,6.9,75.26,3.57,8.67,17.61,27.3,17.61,35.72s-8.08,13.23-11.66,14.01c-3.57.79-65.42,0-65.42,0,0,0-7.53-.34-10.98-12.84,0,0-4.48-8.3,8.81-29.09,2.94-4.59,2.42-45.63,2.42-45.63,0,0,3.41-79.94-2.38-132.66-5.79-52.73-22.47-173.83-22.47-173.83,0,0-7.46-57.42,4.09-117.02,6.13-31.64-10.9-155.46-15.32-196.96l-20.09-189.48s-.51-45.85-30.04-46.08h-1.02c-29.54.23-30.05,46.08-30.05,46.08l-20.09,189.48c-4.42,41.5-21.44,165.32-15.32,196.96,11.55,59.61,4.09,117.02,4.09,117.02,0,0-16.68,121.1-22.47,173.83-5.79,52.72-2.38,132.66-2.38,132.66,0,0-.51,41.04,2.42,45.63,13.29,20.78,8.81,29.09,8.81,29.09-3.45,12.5-10.98,12.84-10.98,12.84,0,0-61.85.79-65.42,0-3.58-.78-11.66-5.6-11.66-14.01s14.04-27.05,17.61-35.72c3.58-8.67,7.66-61.73,6.9-75.26-.77-13.52-2.04-83.17-2.04-83.17,0,0-3.41-76.03-12.6-121.61-9.19-45.59-21.8-105.79-10.89-151.38,11.19-46.76,17.02-141.18,17.02-141.18,0,0-9.53-117.7-16.68-153.42-7.15-35.72-6.81-121.78-5.11-181.32,1.7-59.53,6.13-78.92,20.09-146.95,13.95-68.04,42.55-98.99,41.53-147.98-1.02-48.98-20.09-98.99-20.09-98.99,0,0-23.15-102.05-41.53-126.89-18.38-24.83-108.94-23.81-108.94-23.81,0,0-88.93,2.17-124.29,1.02-35.37-1.15-20.47-5.49-72.73-.21-52.25,5.28-130.53-10.82-130.53-10.82,0,0-123-16.22-135.7-6-17.34,13.96-46.34,17.35-46.34,17.35-14.94,2.04-21.83,5.05-29.11,3.87,0,0-18.89-4.93,1.53-11.39,25.47-8.06,23.15-11.73,23.15-11.73-18.89-1.54-36.08-6.3-36.08-6.3l-46.98,1.53s-29.79.34-26.5-4.43c3.28-4.76,13.73-6.46,13.73-6.46l58.05-6.13s15.48-3.58,24.68-6.97c9.19-3.4,69.78-4.77,69.78-4.77,0,0,88.68-7.31,117.28-11.73,28.6-4.43,89.12-8.72,105.19-8.84,16.68-.13,92.09,4.21,92.09,4.21,0,0,47.49-4.25,74.21-4.94,26.72-.68,53.62,5.28,98.38-5.78,44.77-11.06,111.32,3.23,111.32,3.23,0,0,39.32,7.99,62.98-12.58,23.66-20.58,28.72-48.41,29.32-61.59.6-13.18-.53-18.57-4.94-27.98-3.82-8.17-29.87-55.62-21.19-125.79C973.59,3.71,1030.14-.3,1036.1-.53c.09,0,.17,0,.23,0h.28c5.97.24,62.51,4.26,70.73,70.7,8.68,70.17-17.37,117.61-21.19,125.79-4.41,9.41-5.53,14.8-4.94,27.98.6,13.18,5.66,41.01,29.32,61.59,23.66,20.57,62.98,12.58,62.98,12.58,0,0,66.55-14.29,111.32-3.23,44.77,11.05,71.66,5.1,98.38,5.78,26.73.69,74.21,4.94,74.21,4.94,0,0,75.41-4.34,92.09-4.21,16.07.12,76.6,4.42,105.19,8.84,28.6,4.42,117.28,11.73,117.28,11.73,0,0,60.59,1.37,69.79,4.77,9.19,3.4,24.68,6.97,24.68,6.97l58.04,6.13s10.45,1.7,13.74,6.46c3.28,4.77-26.51,4.43-26.51,4.43h0Z"/>
  </g>
  <g id="svg-ankle">
    <ellipse class="st3" cx="1154.7" cy="1753.65" rx="37.02" ry="9.85"/>
    <line class="st8" x1="1191.73" y1="1753.65" x2="1732.71" y2="1753.65"/>
  </g>
  <g id="svg-torso">
    <line class="st8" x1="1313.05" y1="276.92" x2="1320.88" y2="276.92"/>
    <line class="st8" x1="1313.05" y1="879.97" x2="1320.88" y2="879.97"/>
    <line class="st8" x1="1316.96" y1="879.97" x2="1316.96" y2="277.18"/>
    <line class="st8" x1="1316.96" y1="547.51" x2="1732.71" y2="547.51"/>
  </g>
  <g id="svg-leg">
    <line class="st8" x1="802.96" y1="1874.75" x2="802.96" y2="937.44"/>
    <line class="st8" x1="799.04" y1="937.44" x2="806.88" y2="937.44"/>
    <line class="st8" x1="798.79" y1="1874.75" x2="806.62" y2="1874.75"/>
    <line class="st8" x1="453.65" y1="1352.47" x2="802.2" y2="1352.47"/>
  </g>
  <g id="svg-shoulders">
    <path class="st8" d="M814.82,277.18c0,142.47,445.79,145.53,445.79,0"/>
    <line class="st8" x1="810.9" y1="277.18" x2="818.73" y2="277.18"/>
    <line class="st8" x1="1256.68" y1="276.92" x2="1264.51" y2="276.92"/>
    <line class="st8" x1="907.17" y1="366.26" x2="739.24" y2="534.47"/>
    <line class="st8" x1="740.44" y1="533.94" x2="453.65" y2="533.94"/>
  </g>
  <g id="svg-bust">
    <ellipse class="st5" cx="1041.15" cy="478.51" rx="156.19" ry="9.85"/>
    <line class="st8" x1="884.96" y1="479.35" x2="739.06" y2="702.61"/>
    <line class="st8" x1="740.35" y1="701.96" x2="453.65" y2="701.96"/>
  </g>
  <g id="svg-neck">
    <ellipse class="st10" cx="1040.15" cy="249.89" rx="61.76" ry="9.85"/>
    <line class="st8" x1="978.91" y1="248.79" x2="864.62" y2="63.7"/>
    <line class="st8" x1="865.98" y1="64.38" x2="569.49" y2="64.38"/>
  </g>
  <g id="svg-brachial">
    <ellipse class="st7" cx="643.01" cy="340.33" rx="9.85" ry="44.92"/>
    <line class="st8" x1="643.01" y1="295.41" x2="332.52" y2="64.36"/>
    <line class="st8" x1="333.45" y1="64.66" y2="64.66"/>
  </g>
  <g id="svg-forearm">
    <ellipse class="st2" cx="510.36" cy="338.89" rx="45.9" ry="9.85" transform="translate(133.48 821.88) rotate(-85.62)"/>
    <line class="st8" x1="333.98" y1="534.48" x2="506.85" y2="384.66"/>
    <line class="st8" x1="334.99" y1="534.13" y2="534.13"/>
  </g>
  <g id="svg-wrist">
    <ellipse class="st9" cx="333.44" cy="336.9" rx="7.83" ry="25.34" transform="translate(-49.13 57.04) rotate(-9.11)"/>
    <line class="st8" x1="329.02" y1="228.36" x2="329.22" y2="311.82"/>
    <line class="st8" x1="328.19" y1="229.81" y2="229.81"/>
  </g>
  <g id="svg-arm">
    <line class="st8" x1="1238.73" y1="253.4" x2="1238.73" y2="245.57"/>
    <line class="st8" x1="1757.67" y1="249.48" x2="1238.99" y2="249.48"/>
    <line class="st8" x1="1757.67" y1="253.4" x2="1757.67" y2="245.57"/>
    <line class="st8" x1="1498.33" y1="249.48" x2="1498.33" y2="141.13"/>
    <line class="st8" x1="1633.66" y1="141.13" x2="1363.01" y2="141.13"/>
  </g>
  <g id="svg-hip">
    <ellipse class="st8" cx="1040.17" cy="879.97" rx="185.5" ry="9.85"/>
    <line class="st8" x1="1225.67" y1="879.97" x2="1361.98" y2="1084.8"/>
    <line class="st8" x1="1732.71" y1="1084.08" x2="1360.65" y2="1084.08"/>
  </g>
  <g id="svg-upper-leg">
    <ellipse class="st4" cx="1144.49" cy="1055.22" rx="79.91" ry="9.85"/>
    <line class="st8" x1="1224.2" y1="1055.92" x2="1361.9" y2="1251.9"/>
    <line class="st8" x1="1732.71" y1="1251.23" x2="1360.65" y2="1251.23"/>
  </g>
  <g id="svg-lower-leg">
    <ellipse class="st1" cx="1148.15" cy="1286.26" rx="56.55" ry="9.85"/>
    <path class="st8" d="M1204.71,1286.26l155.72,132.75"/>
    <line class="st8" x1="1731.52" y1="1418.68" x2="1359.46" y2="1418.68"/>
  </g>
  <g id="svg-calf">
    <ellipse class="st0" cx="1154.2" cy="1502.83" rx="64.01" ry="9.85"/>
    <line class="st8" x1="1217.79" y1="1503.97" x2="1361.38" y2="1585.13"/>
    <line class="st8" x1="1732.71" y1="1584.95" x2="1360.65" y2="1584.95"/>
  </g>
  <g id="svg-waist">
    <g id="svg-waist-2">
      <line class="st8" x1="739.17" y1="870.54" x2="914.55" y2="628.14"/>
      <line class="st8" x1="740.44" y1="869.87" x2="453.65" y2="869.87"/>
    </g>
    <path class="st6" d="M1038.83,617.82c68.72,0,125.43,4.41,125.43,9.85s-56.71,9.85-125.43,9.85-124.43-4.41-124.43-9.85,55.71-9.85,124.43-9.85Z"/>
  </g>
  <g id="Base_-_U">
    <path class="st11" d="M488.79,336.39c.42-11.6,3.15-22.09,6.59-32.82-24.24,1.67-54.83,4.41-72.81,7.19-19.01,2.94-64.56,7.15-92.97,9.65,1.8,10.67,2.91,21.09,6.04,31.57.15.49.21.95.23,1.4.13.46.2.93.2,1.39,40.48,1.43,99.01,9.15,99.01,9.15,0,0,25.24,5.19,56.62,8.71-2.42-11.76-3.34-24.38-2.91-36.23h0Z"/>
    <path class="st11" d="M621.27,337.9c.2-11.01,1.19-22.04,5.07-32.33-4.06.34-6.49.56-6.49.56,0,0-75.41-4.34-92.09-4.21-3.1.02-7.89.21-13.75.51-.02.16-.03.31-.06.46-.65,2.77-.56,5.97-1.02,8.94-.17,1.1-.84,1.99-1.73,2.61-1.28,8.6-2.76,17.19-3.65,25.84-.66,6.4-.99,12.83-1.06,19.27-.06,4.98.87,9.79,1.5,14.67,19.51,1.64,40.04,2.29,57.63.51,41.5-4.19,40.65-2.32,56.25-.79-.62-12-.81-24.02-.59-36.04h0Z"/>
    <path class="st11" d="M877.54,375.81c.62-.51,1.24-1.03,1.85-1.56-1.44-.56-2.88-1.1-4.31-1.69-16.01-6.59-30.97-14.86-43.87-26.56-13.05-11.83-22.37-26.83-28.16-43.38-1.12-3.21-.86-6.45.31-9.37-3.75.58-7.41,1.29-10.93,2.16-44.76,11.05-71.66,5.1-98.38,5.78-14.42.37-34.89,1.78-50.68,3-.29,11.56-1.81,22.96-2.8,34.47-.37,4.28-.48,8.57-.44,12.86.62,4.66,1.34,9.33,2.32,13.93.69,3.24,1.62,6.39,2.04,9.65,38.52.76,118.13-1.18,118.13-1.18,0,0,67.42-.76,97.72,14.99.31-.26.62-.53.95-.78,3.04-2.33,6.12-4.59,9.19-6.88,1.37-1.02,2.73-2.03,4.09-3.07.17-.15,2.63-2.1,2.96-2.38h0Z"/>
    <path class="st11" d="M996.06,224.47c-.28,6.11-1.52,15.38-5.13,25.61.29.04.59.07.88.11.87-.11,1.75-.12,2.64,0,17.06,2.15,34.26,1.77,51.4,2.53,15.17.68,30.03-1.46,45.08-2.53-3.64-10.27-4.89-19.58-5.17-25.72-.59-13.18.53-18.57,4.94-27.98,3.82-8.17,29.87-55.62,21.19-125.79C1103.68,4.26,1047.14.24,1041.17,0h-.28c-.06,0-.14,0-.23,0-5.96.23-62.51,4.24-70.73,70.69-8.68,70.17,17.37,117.61,21.19,125.79,4.41,9.41,5.54,14.8,4.94,27.98h0Z"/>
    <path class="st11" d="M1178.07,298.64s-39.32,7.99-62.98-12.58c-3.19-2.77-6.02-5.68-8.57-8.66-.63.55-1.31,1.07-2.06,1.53-18.63,11.46-40.44,12.25-61.57,9.69-5.7-.69-11.39-1.5-17.08-2.3-.46-.06-.74-.1-.93-.13-.06,0-.2-.02-.46-.06-1.04-.13-2.08-.26-3.13-.39-2.35-.28-4.7-.49-7.06-.65-4.42-.31-8.9-.53-13.37-.93-2.93.4-5.97.04-8.69-1.11-3.41-.59-6.76-1.4-10.03-2.56-2.41-.86-4.55-2.13-6.3-3.72-2.68,3.2-5.69,6.32-9.09,9.28-23.66,20.57-62.98,12.58-62.98,12.58,0,0-35.47-7.61-72.04-7.42.57.99,1.07,2.02,1.44,3.1.46,1.33.95,2.64,1.46,3.96.05.12.1.23.13.3.89,1.89,1.79,3.76,2.79,5.59.98,1.8,2.02,3.56,3.13,5.27.61.94,1.24,1.87,1.88,2.79.09.13.38.54.65.91.41.52,1.23,1.58,1.38,1.75.57.68,1.15,1.35,1.73,2.01,1.32,1.48,2.69,2.92,4.1,4.31,1.41,1.39,2.86,2.74,4.36,4.04,1,.87,2.02,1.7,3.04,2.54.03.02.09.07.17.13.44.31,1.76,1.27,1.96,1.41.72.51,1.45,1.01,2.19,1.51,1.47.99,2.97,1.95,4.49,2.88,3.06,1.87,6.2,3.6,9.39,5.22,1.81.92,3.65,1.8,5.49,2.64.58.26,2.47,1.08,2.82,1.25,3.07,1.25,6.17,2.43,9.31,3.53,14.28,5.01,29.05,8.49,43.9,11.35,38.63,7.44,76.56,12.93,116.13,12.71,1.74-.69,3.6-1.08,5.47-1.09,18.92-.06,35.99-1.82,53.66-5.2,15.8-3.02,31.09-7.48,46.45-12.18,13.03-3.98,26.17-7.66,38.86-12.65.21-.08,1.81-.74,2.44-.99.33-.14.65-.28.69-.3,1.35-.61,2.69-1.22,4.03-1.86,3.09-1.49,6.13-3.08,9.08-4.82,2.7-1.59,5.32-3.32,7.87-5.14-.17.1,1.64-1.26,2.1-1.65,1.31-1.11,2.58-2.25,3.81-3.44,1.42-1.37,2.79-2.79,4.11-4.26.5-.56.99-1.12,1.47-1.69.04-.04.29-.38.51-.69.31-.5.82-1.3.93-1.47.39-.64.77-1.28,1.13-1.93.59-1.07,1.15-2.18,1.66-3.31.03-.18.63-1.84.72-2.13.24-.74.48-1.49.69-2.24.5-1.75.86-3.53,1.25-5.3.06-.29.11-.49.14-.61.04-.44.08-.87.11-1.31.12-1.61.15-3.22.13-4.83-33.12.92-62.9,7.32-62.9,7.32h0Z"/>
    <path class="st11" d="M1171.93,511.18c-3.19.29-6.37.59-9.56.76-7.84.41-15.69.46-23.54.46-13.98,0-27.96.07-41.94.19-1.49.48-3.06.72-4.63.64-18.57-.89-37.13.68-55.71.39-14.21-.22-28.42-.34-42.63-.62-.52.05-1.05.07-1.57.06-17.08-.36-34.16-.89-51.24-1.23-10.41-.21-20.84-.63-31.26-.95,2.07,8.46,3.27,13.74,3.27,13.74,0,0,19.07,50,20.09,98.99.03,1.35.03,2.69,0,4.01.33.09.67.17,1,.26,11.78.29,23.45,1.96,35.26,2.31,12.56.37,25.14.16,37.71-.1,22.9-.46,45.83-1.11,68.69.44.99-.04,1.99-.08,2.98-.12,12.15-.46,24.31-.83,36.46-1.23,11.12-.37,22.21-1.52,33.34-1.68-.02-1.29-.03-2.58,0-3.9,1.03-48.98,20.09-98.99,20.09-98.99,0,0,1.17-5.17,3.2-13.45v.02Z"/>
    <path class="st11" d="M1190.18,771.59c-12.13-59.11-35.29-90.23-40.5-129.5-7.4.16-14.8.43-22.2.71-3.68.38-7.39.7-11.14.91-12.94.72-25.89,1.2-38.82,2.18-2.09.16-3.61-.61-4.57-1.82-10.62.29-21.25.61-31.87.8-6.58.11-13.16.11-19.73.05-4.88.21-9.75.42-14.63.63-1.45.06-2.62-.31-3.53-.95-7.1-.18-14.2-.4-21.31-.63-16.52-.53-33.24-.03-49.34-4.01h-.11c-4.63,40.29-28.41,71.46-40.75,131.64-10.44,50.9-15.55,74.58-18.17,108.21,1.19.09,2.39.24,3.59.41,4.58.37,9.16.58,13.74.91,19.17.26,38.35.24,57.52.91,22.93.81,45.8,2.06,68.75,1.94,23.44-.12,46.88-.71,70.31-1.21,25.73-.56,51.43-.52,77.14-.37.2-.02.41-.04.62-.05,7.36-.2,14.72-.49,22.08-.77,7.09-.27,14.07-1.35,21.13-1.72-2.62-33.64-7.73-57.34-18.17-108.25l-.04-.02Z"/>
    <path class="st11" d="M1194.82,1057.71c4.99-.63,9.96-2.09,14.97-2.58,2.18-41.18,1.65-95.26.47-136.58-.25-8.72-.56-16.57-.94-23.84-7.35-.07-14.69-.18-22.04-.28-1.39.26-2.77.57-4.15.94-2.15.57-3.94.04-5.23-1.07-2.11-.03-4.22-.05-6.33-.07-2.14.07-4.28.15-6.43.21-.8.02-1.52-.09-2.15-.3-4.74-.04-9.47-.07-14.21-.08-46.88-.06-93.74,2.1-140.62,2.04-22.88-.03-45.71-1.65-68.57-2.23-9.24-.23-18.49-.33-27.73-.42-.86,1.7-2.56,2.88-5.14,2.63-6.09-.6-12.25-1.02-18.32-1.79-.4-.05-.81-.12-1.21-.18-2.63-.32-5.26-.7-7.88-1.08-2.23-.05-4.45-.1-6.68-.16-.43,7.79-.77,16.23-1.04,25.68-1.7,59.54-2.04,145.59,5.11,181.32,7.15,35.71,16.68,153.42,16.68,153.42,0,0-5.83,94.42-17.02,141.18-10.91,45.59,1.7,105.79,10.89,151.38,9.19,45.58,12.6,121.61,12.6,121.61,0,0,1.27,69.65,2.04,83.17.76,13.53-3.32,66.59-6.9,75.26-3.57,8.67-17.61,27.3-17.61,35.72s8.08,13.23,11.66,14.01c3.57.79,65.42,0,65.42,0,0,0,7.53-.34,10.98-12.84,0,0,4.48-8.3-8.81-29.09-2.93-4.59-2.42-45.63-2.42-45.63,0,0-3.41-79.94,2.38-132.66,5.79-52.73,22.47-173.83,22.47-173.83,0,0,7.46-57.42-4.09-117.02-6.12-31.64,10.9-155.46,15.32-196.96l20.09-189.48s.51-45.85,30.05-46.08h1.02c29.53.23,30.04,46.08,30.04,46.08l8.2,77.29c22.29,5.78,45.91,4.26,68.75,4.35,10.38.04,20.76-.03,31.13-.4,5.09-.49,10.19-1,15.27-1.64h-.02Z"/>
    <path class="st11" d="M1208.91,1069.08c-8.3.73-16.58,1.83-24.9,2.2-1.48.07-2.95.1-4.43.16-1.29.12-2.58.25-3.86.37-.82.08-1.55,0-2.2-.18-9.02.22-18.05.24-27.07.19-21.77-.12-44.05,1-65.42-3.68l10.54,99.42c2.52,23.64,9.13,74,13.22,118.82,8.5,1.56,17.69.87,26.14,1.56,1.31.11,2.39.55,3.26,1.2,5.43.07,10.86.13,16.29.14,5.68.01,11.37.02,17.06-.08,4.61-.5,9.21-1.16,13.82-1.7,3.19-.37,6.39-1.14,9.58-1.79-1.62-19.12-2.45-32.45-2.45-32.45,0,0,9.54-117.7,16.69-153.42,1.6-8.01,2.83-18.57,3.74-30.78v.02Z"/>
    <path class="st11" d="M1205.5,1394.46c-4.81-20.1-8.63-49-11.42-75.43-6.83.37-13.56,1.72-20.38,2.28-7.54.62-15.11.79-22.67.6-7.63-.2-15.37.11-22.97-.65-6.96-.69-13.76-1.88-20.75-2.22,1.19,19.96,1.33,36.48-.42,45.5-11.55,59.61-4.09,117.02-4.09,117.02,0,0,1.12,8.15,2.88,21.1,2.7.32,5.4.68,8.1,1.05,5.23.14,10.39.97,15.74,1.22,8.56.41,17.18.25,25.75.25h17.67c9.95-1,19.91-1.99,29.9-2.24h0c6.3-36.57,10.39-76.2,2.66-108.49h0Z"/>
    <path class="st11" d="M1154.82,1539.44c-7.93.16-15.84-.12-23.74-.78-7-.58-13.92-2.22-20.91-2.62,5.23,39.1,11.86,89.89,15.09,119.35,3.38,30.75,3.62,70.73,3.24,98.73.61.19,1.22.38,1.83.55,2.7.02,5.38.3,8.04.71,3.78-1.14,8.2-.87,11.88-.59,5.85.45,11.67.6,17.48,1.12,4.02-.63,8.09-1.74,12.14-2.23,0-1.17.04-2.21.09-3.07.77-13.52,2.05-83.17,2.05-83.17,0,0,3.4-76.03,12.59-121.61.61-3.04,1.24-6.15,1.88-9.31-13.84,1.58-27.73,2.63-41.66,2.91h0Z"/>
    <path class="st11" d="M1186.86,1825.88c-1.82-4.41-3.77-20.3-5.15-36.64-2.7.04-5.4.06-8.11.07-2.9.35-5.81.64-8.73.71-.5.13-1.04.2-1.63.2-1.6,0-3.21-.04-4.81-.08-3.11.41-6.22.84-9.33,1.31-2.48.38-4.49-.6-5.82-2.13-4.73-.33-9.73-.61-14.41-1.6-.41-.04-.81-.08-1.22-.12-.01.29-.02.45-.02.45,0,0,.52,41.04-2.42,45.63-13.29,20.78-8.81,29.09-8.81,29.09,3.45,12.5,10.98,12.84,10.98,12.84,0,0,61.85.79,65.42,0,3.58-.78,11.66-5.6,11.66-14.01s-14.04-27.05-17.61-35.72h.01Z"/>
    <path class="st11" d="M1289.39,295.41c-5.47-1.35-11.26-2.32-17.22-2.99-.14,19.54-8.32,37.87-22.51,51.25-23,21.69-54.12,29.75-83.51,38.8-32.87,10.13-66.48,17.12-100.91,17.97-1.73.68-3.57,1.08-5.42,1.12-25.08.52-50.1-1.39-74.95-4.67-23.78-3.14-48.25-6.47-71.92-12.26-9.28,11.22-21.45,19.58-33.11,28.35,7.67,17.42,15.44,42.99,21.55,65.27,12.05.41,24.09,1.48,36.13,1.87,1.2.04,2.34.21,3.45.47h.13c13.03.26,26.06.62,39.08.94.53-.05,1.06-.07,1.6-.06,3.26.09,6.53.16,9.79.22,2.05-1,4.28-1.54,6.55-1.42,29.22,1.56,58.49,1.43,87.74,1.15.3-.05.61-.09.94-.1,31.1-.97,62.4-.99,93.45-3.06h.19c8.33-30.42,19.79-66.99,29.82-80.55,13.39-18.09,65.07-22.46,92.16-23.5v-70.58c0-1.86.34-3.61.93-5.23-4.46-.83-9.1-1.82-13.96-3.02v.03Z"/>
    <path class="st11" d="M1942.79,346.82c-3.29-4.76-13.74-6.46-13.74-6.46l-58.04-6.13s-15.49-3.58-24.68-6.97c-9.2-3.4-69.79-4.77-69.79-4.77,0,0-88.68-7.31-117.28-11.73-28.59-4.43-89.12-8.72-105.19-8.84-16.68-.13-92.09,4.21-92.09,4.21,0,0-47.48-4.25-74.21-4.94-16.6-.42-33.27,1.71-54.24.74.07.57.12,1.15.12,1.73v70.59c26.67.56,83.33,1.56,109.86.7,35.36-1.15,20.46-5.49,72.72-.21,52.25,5.28,130.53-10.82,130.53-10.82,0,0,123-16.22,135.7-6,17.34,13.96,46.34,17.35,46.34,17.35,14.94,2.04,21.83,5.05,29.11,3.87,0,0,18.89-4.93-1.53-11.39-25.47-8.06-23.15-11.73-23.15-11.73,18.89-1.54,36.08-6.3,36.08-6.3l46.98,1.53s29.79.34,26.51-4.43h0Z"/>
    <path class="st11" d="M317.12,321.49c-7.31.63-11.83,1-11.83,1,0,0-60.59,1.37-69.78,4.77-9.2,3.4-24.68,6.97-24.68,6.97l-58.05,6.13s-10.45,1.7-13.73,6.46c-3.29,4.77,26.5,4.43,26.5,4.43l46.98-1.53s17.19,4.76,36.08,6.3c0,0,2.32,3.67-23.15,11.73-20.42,6.47-1.53,11.39-1.53,11.39,7.28,1.18,14.17-1.83,29.11-3.87,0,0,29-3.39,46.34-17.35,2.94-2.37,11.81-3.31,23.69-3.37-4.84-10.37-7.12-21.6-5.95-33.05h0Z"/>
  </g>
</svg>