<?xml version="1.0" encoding="UTF-8"?>
<svg xmlns="http://www.w3.org/2000/svg" version="1.1" viewBox="0 0 1943.55 1876">
  <!-- Generator: Adobe Illustrator 29.6.0, SVG Export Plug-In . SVG Version: 2.1.1 Build 207)  -->
  <defs>
    <style>
      .st0 {
        stroke-miterlimit: 10;
      }

      .st0, .st1, .st2, .st3 {
        stroke: #fff;
      }

      .st0, .st1, .st3 {
        fill: none;
        stroke-width: 3px;
      }

      .st1, .st2, .st4 {
        stroke-miterlimit: 10;
      }

      .st2 {
        fill: #ff5d00;
        stroke-width: 1.03px;
      }

      .st5 {
        display: none;
      }

      .st3 {
        stroke-miterlimit: 10;
      }

      .st4 {
        fill: #bfbfbf;
        stroke: #bfbfbf;
      }
    </style>
  </defs>
  <g id="Layer_2" class="st5">
    <rect class="st2" x="-60.65" y="-36.32" width="2067.13" height="1957.79"/>
  </g>
  <g id="Manequim">
    <g id="Base_-_D">
      <path class="st4" d="M1937.62,338.65c-2.43,1.02-8.17.89-10.72.89s-39.78-3.76-72.77-.51c-11.98,1.18-12.51,5.36-34.85,8.81h-1.53s36,14.81,34.34,25.02-23.86,3.6-37.41,1.92c-42.25-5.24-38.68-20.81-55.15-23.49-16.46-2.68-27.27-4.32-77.83,1.47-50.55,5.78-52.59,12.93-148.59,19.57s-114.38,3.4-172.6,10.89c-58.21,7.49-68.13,2.26-112.55,26.77-14.57,8.04-19.44,18.23-24.85,27.57-11.08,19.16-13.01,40.43-25.36,72-18.39,46.98-20.94,64.86-20.94,64.86,0,0-8,48.34-7.15,79.65.85,31.32,6.98,83.58,6.98,83.58,0,0,12.77,70.3,15.32,92.77,2.55,22.46,8.17,55.65,9.36,88.68,1.19,33.02,6.13,106.04,6.13,106.04,0,0,.17,78.64-5.28,113.7-5.44,35.06-8.68,117.28-8.68,117.28,0,0-1.36,91.06,1.7,110.13,3.07,19.06,7.15,53.95,7.83,68.08.68,14.13,3.41,53.79.85,98.72-2.55,44.94-7.14,89.2-7.14,89.2,0,0-4.09,51.57-4.26,66.55-.17,14.98-2.3,63.98,2.55,87.49,5.62,27.23,4.77,42.21,14.81,50.38,0,0,29.62,28.26,28.09,41.19-1.54,12.94-88.17,5.79-88.17,5.79,0,0-10.05,2.55-8.68-36.43,1.36-38.97,4.25-64.17,2.21-93.95-2.04-29.79-16.68-124.6-16.68-124.6l-19.24-94.81s-3.91-57.02.68-92.76c0,0,3.24-25.88-.51-59.58-3.74-33.7-6.12-36.93-11.57-67.91s-12.43-72.68-15.32-94.3-7.66-57.87-13.11-89.53c-5.44-31.66-9.19-70.3-10.04-81.88-.85-11.57-3.89-51.57-16.16-50.04-12.26-1.53-15.31,38.47-16.16,50.04-.85,11.58-4.59,50.22-10.04,81.88-5.45,31.66-10.21,67.91-13.11,89.53-2.89,21.62-9.87,63.32-15.32,94.3-5.44,30.98-7.83,34.21-11.57,67.91-3.75,33.7-.51,59.58-.51,59.58,4.59,35.74.68,92.76.68,92.76l-19.23,94.81s-14.64,94.81-16.69,124.6c-2.04,29.78.86,54.98,2.22,93.95,1.36,38.98-8.68,36.43-8.68,36.43,0,0-86.64,7.15-88.17-5.79-1.54-12.93,28.08-41.19,28.08-41.19,10.04-8.17,9.19-23.15,14.81-50.38,4.85-23.51,2.72-72.51,2.55-87.49s-4.25-66.55-4.25-66.55c0,0-4.6-44.26-7.15-89.2-2.55-44.93.17-84.59.85-98.72s4.77-49.02,7.83-68.08c3.06-19.07,1.7-110.13,1.7-110.13,0,0-3.23-82.22-8.68-117.28s-5.28-113.7-5.28-113.7c0,0,4.94-73.02,6.13-106.04,1.19-33.03,6.81-66.22,9.36-88.68,2.56-22.47,15.32-92.77,15.32-92.77,0,0,6.13-52.26,6.98-83.58.85-31.31-7.15-79.65-7.15-79.65,0,0-2.55-17.88-20.93-64.86-12.36-31.57-14.28-52.84-25.37-72-5.4-9.34-10.28-19.53-24.85-27.57-44.42-24.51-54.34-19.28-112.55-26.77-58.21-7.49-76.6-4.25-172.6-10.89-96-6.64-98.04-13.79-148.59-19.57-50.55-5.79-61.36-4.15-77.83-1.47s-12.89,18.25-55.15,23.49c-13.55,1.68-35.74,8.29-37.4-1.92-1.66-10.21,34.34-25.02,34.34-25.02h-1.54c-22.34-3.45-22.87-7.63-34.85-8.81-32.99-3.25-70.21.51-72.76.51s-8.3.13-10.73-.89c-2.42-1.02-6.38-2.94-5.21-6.38,1.17-3.45,8.02-9.2,34.19-11.24s41.88-.51,51.96-4.21c15.85-5.82,26.04-7.53,26.04-7.53,23.75-2.56,30.9,1.91,75.83-5.11,53.69-8.39,39.19-3.83,108.77-14.04,69.57-10.21,95.36-3.45,145.02.38,74.54,5.75,88.6,1.41,122.94,0,34.34-1.4,104.93-14.04,104.93-14.04,64.98-2.3,71.11,15.83,101.11,8.68,35.66-8.5,43.79-13.91,55.53-18.51,11.75-4.6,13.28-8.81,15.83-11.87,2.55-3.07,7.02-19.15,5.36-38.56-1.66-19.4-6.64-31.06-6.64-31.06,0,0-9.53-27.23-11.4-43.74-1.87-16.52-2.21-35.24-2.21-35.24C966.32-3.1,1041.33.73,1041.33.73c0,0,75.01-3.83,74.25,105.45,0,0-.34,18.72-2.22,35.24-1.87,16.51-11.4,43.74-11.4,43.74,0,0-4.98,11.66-6.64,31.06-1.66,19.41,2.81,35.49,5.36,38.56,2.56,3.06,4.09,7.27,15.83,11.87,11.75,4.6,19.87,10.01,55.53,18.51,30,7.15,36.13-10.98,101.11-8.68,0,0,70.6,12.64,104.94,14.04,34.34,1.41,48.39,5.75,122.93,0,49.66-3.83,75.45-10.59,145.02-.38,69.58,10.21,55.08,5.65,108.77,14.04,44.94,7.02,52.09,2.55,75.83,5.11,0,0,10.19,1.71,26.04,7.53,10.09,3.7,25.79,2.17,51.96,4.21,26.17,2.04,33.02,7.79,34.19,11.24,1.17,3.44-2.79,5.36-5.21,6.38h0Z"/>
    </g>
    <g id="svg-ankle">
      <ellipse class="st1" cx="1168.24" cy="1753.65" rx="42.11" ry="9.85"/>
      <line class="st1" x1="1210.35" y1="1753.65" x2="1732.71" y2="1753.65"/>
    </g>
    <g id="svg-torso">
      <line class="st1" x1="1313.05" y1="256.67" x2="1320.88" y2="256.67"/>
      <line class="st1" x1="1313.05" y1="859.72" x2="1320.88" y2="859.72"/>
      <line class="st1" x1="1316.96" y1="859.72" x2="1316.96" y2="256.93"/>
      <line class="st1" x1="1316.96" y1="547.51" x2="1732.71" y2="547.51"/>
    </g>
    <g id="svg-leg">
      <line class="st1" x1="802.96" y1="1874.94" x2="802.96" y2="917.19"/>
      <line class="st1" x1="799.04" y1="917.19" x2="806.88" y2="917.19"/>
      <line class="st1" x1="798.79" y1="1874.94" x2="806.62" y2="1874.94"/>
      <line class="st1" x1="453.65" y1="1352.47" x2="802.2" y2="1352.47"/>
    </g>
    <g id="svg-shoulders">
      <path class="st1" d="M814.82,256.93c0,142.47,445.79,145.53,445.79,0"/>
      <line class="st1" x1="810.9" y1="256.93" x2="818.73" y2="256.93"/>
      <line class="st1" x1="1256.68" y1="256.67" x2="1264.51" y2="256.67"/>
      <line class="st1" x1="907.17" y1="346.01" x2="740.07" y2="534.13"/>
      <line class="st1" x1="740.44" y1="533.94" x2="453.65" y2="533.94"/>
    </g>
    <g id="svg-bust">
      <ellipse class="st1" cx="1041.15" cy="458.26" rx="197.58" ry="9.85"/>
      <line class="st1" x1="843.57" y1="458.26" x2="740.07" y2="702.14"/>
      <line class="st1" x1="740.35" y1="701.96" x2="453.65" y2="701.96"/>
    </g>
    <g id="svg-waist">
      <ellipse class="st1" cx="1041.15" cy="643.62" rx="152.22" ry="9.85"/>
      <line class="st1" x1="740.07" y1="870.15" x2="888.93" y2="643.61"/>
      <line class="st1" x1="740.44" y1="869.87" x2="453.65" y2="869.87"/>
    </g>
    <g id="svg-neck">
      <ellipse class="st1" cx="1041.15" cy="229.64" rx="71.97" ry="9.85"/>
      <line class="st1" x1="969.18" y1="229.64" x2="865.11" y2="64.38"/>
      <line class="st1" x1="865.11" y1="64.38" x2="569.49" y2="64.38"/>
    </g>
    <g id="svg-brachial">
      <ellipse class="st1" cx="643.01" cy="336.08" rx="9.85" ry="53.4"/>
      <line class="st1" x1="643.01" y1="282.68" x2="333.45" y2="64.65"/>
      <line class="st1" x1="333.45" y1="64.65" y2="64.65"/>
    </g>
    <g id="svg-forearm">
      <ellipse class="st0" cx="510.36" cy="326.64" rx="53.24" ry="9.85" transform="translate(145.69 810.56) rotate(-85.62)"/>
      <line class="st1" x1="334.99" y1="534.13" x2="506.34" y2="379.15"/>
      <line class="st1" x1="334.99" y1="534.13" y2="534.13"/>
    </g>
    <g id="svg-wrist">
      <ellipse class="st3" cx="333.46" cy="326.64" rx="7.83" ry="34.55" transform="translate(-47.51 56.92) rotate(-9.11)"/>
      <line class="st1" x1="327.45" y1="229.82" x2="327.45" y2="293.4"/>
      <line class="st1" x1="327.52" y1="229.82" y2="229.81"/>
    </g>
    <g id="svg-arm">
      <line class="st1" x1="1238.73" y1="233.15" x2="1238.73" y2="225.32"/>
      <line class="st1" x1="1757.67" y1="229.23" x2="1238.99" y2="229.23"/>
      <line class="st1" x1="1757.67" y1="233.15" x2="1757.67" y2="225.32"/>
      <line class="st1" x1="1498.33" y1="229.23" x2="1498.33" y2="141.13"/>
      <line class="st1" x1="1633.66" y1="141.13" x2="1363.01" y2="141.13"/>
    </g>
    <g id="svg-hip">
      <ellipse class="st1" cx="1040.17" cy="859.72" rx="185.5" ry="9.85"/>
      <line class="st1" x1="1225.67" y1="859.72" x2="1360.65" y2="1084.08"/>
      <line class="st1" x1="1732.71" y1="1084.08" x2="1360.65" y2="1084.08"/>
    </g>
    <g id="svg-upper-leg">
      <ellipse class="st1" cx="1134.26" cy="1034.97" rx="95.72" ry="9.85"/>
      <line class="st1" x1="1229.98" y1="1034.97" x2="1360.65" y2="1251.23"/>
      <line class="st1" x1="1732.71" y1="1251.23" x2="1360.65" y2="1251.23"/>
    </g>
    <g id="svg-lower-leg">
      <ellipse class="st1" cx="1145.99" cy="1286.26" rx="68.7" ry="9.85"/>
      <line class="st1" x1="1214.69" y1="1286.26" x2="1360.65" y2="1418.68"/>
      <line class="st1" x1="1732.71" y1="1418.68" x2="1360.65" y2="1418.68"/>
    </g>
    <g id="svg-calf">
      <ellipse class="st1" cx="1154.2" cy="1503.01" rx="68.7" ry="9.85"/>
      <line class="st1" x1="1222.9" y1="1503.01" x2="1360.65" y2="1585.13"/>
      <line class="st1" x1="1732.71" y1="1585.13" x2="1360.65" y2="1585.13"/>
    </g>
    <g id="Base_-_U">
      <path class="st4" d="M316.12,331.48c-.85-4.5-1.68-9.01-2.56-13.51-.54-2.76-.72-7.55-2.95-9.51-.63-.55-1.05-1.15-1.31-1.76-29,3.26-37.26.43-57.27,2.59,0,0-10.19,1.71-26.04,7.53-10.08,3.7-25.79,2.17-51.96,4.21s-33.02,7.79-34.19,11.24c-1.17,3.44,2.79,5.36,5.21,6.38,2.43,1.02,8.17.89,10.73.89s39.77-3.76,72.76-.51c11.98,1.18,12.51,5.36,34.85,8.81h1.54s-36,14.81-34.34,25.02c1.66,10.21,23.85,3.6,37.4,1.92,40.06-4.97,38.93-19.21,52.73-22.97-1.92-6.68-3.32-13.49-4.61-20.34Z"/>
      <path class="st4" d="M492.22,308.24c1.56-7.9,4.17-15.53,5.63-23.44-16.85.21-36.2,1.68-61.23,5.36-69.16,10.15-55.26,5.71-107.82,13.89.13,1.01-.04,2.05-.46,2.96.06.11.11.22.16.33,1.81,4.2,1.97,8.35,2.29,12.85.05.65.1,1.3.15,1.95.75,2.35,1.52,4.68,2.22,7.03,1.75,5.86,2.39,11.72,2.98,17.7.5.74.78,1.63.85,2.53,12.09-1.11,27.93-.76,63.96,3.37,38.38,4.39,48.83,9.57,93.64,14.71-.09-18.34-1.28-36.65-1.35-55-.9-1.07-1.38-2.52-1.04-4.25Z"/>
      <path class="st4" d="M620.43,336.72c.35-7.9,1.29-15.74,2.34-23.57.91-6.76,3.04-13.05,4.26-19.72.02-.1.05-.2.07-.3-12.26-.38-27.01-1.19-45.46-2.61-25.83-1.99-45.2-4.78-67.63-5.55.04.45.03.93-.05,1.42-2.29,14.03-4.48,27.92-4.59,42.18-.09,11.96-1.02,23.88-1.9,35.8.74,1.35.85,3.05.34,4.51,11.64,1.16,25.32,2.31,41.74,3.44,30.85,2.13,53.68,3.25,72.4,4.02-.85-13.2-2.11-26.4-1.53-39.63Z"/>
      <path class="st4" d="M1041.33.73s-75.01-3.83-74.24,105.45c0,0,.34,18.72,2.21,35.24,1.87,16.51,11.4,43.74,11.4,43.74h0s4.98,11.66,6.64,31.06c.41,4.83.44,9.46.22,13.74,12.33.75,24.63,1.86,36.96,2.62.45-.18.95-.31,1.49-.37,4.75-.49,9.82.21,14.63.15,4.88-.06,9.75-.2,14.63-.4,5.37-.23,10.75-.49,16.12-.71,3.88-.36,7.75-.78,11.59-1.41,4.05-.67,8.01-1.74,12.03-2.51-.09-3.52,0-7.23.32-11.09,1.66-19.4,6.64-31.06,6.64-31.06,0,0,9.53-27.23,11.4-43.74,1.88-16.52,2.22-35.24,2.22-35.24.75-109.28-74.26-105.45-74.26-105.45Z"/>
      <path class="st4" d="M1172.06,285.16c-35.66-8.5-43.78-13.91-55.53-18.51-11.74-4.6-13.27-8.81-15.83-11.87-1.03-1.23-2.36-4.6-3.49-9.43-20.99,2.79-42.06,4.49-63.24,4.96-10.86.24-21.64.18-32.47-.66-5.66-.44-11.33-.51-17-.63-.87,2.86-1.77,4.87-2.51,5.76-2.55,3.06-4.08,7.27-15.83,11.87-11.74,4.6-19.87,10.01-55.53,18.51-26.45,6.3-34.36-7.04-80.39-8.71,5.19,9.33,11.76,18.12,19.65,24.85,5.73,4.89,11.95,8.65,18.58,12.2,4.05,2.17,8.49,4.08,12.65,6.3,1.63-.72,3.6-.6,5.25,1.03,7.86,7.81,17.96,10.27,28.44,12.58,10.63,2.34,21.35,4.04,32.03,6.09,22.43,4.32,44.46,11.21,67.49,11.4,1.12,0,2.05.33,2.78.83,3.47.02,6.94.04,10.41.07.8-.8,1.93-1.31,3.41-1.28,10.58.16,21.18.75,31.76.33,9.66-.38,19.25-2.06,28.81-3.36,9.52-1.3,19.04-2.66,28.48-4.45,5.03-.95,10.07-1.83,15.1-2.8,2.59-.5,5.11-1.26,7.65-1.97.5-1.33,1.54-2.42,3.17-2.76,2.94-.62,5.92-.99,8.9-1.28,4.5-.78,8.97-1.75,13.44-2.68,1.49-.31,2.77,0,3.78.66,5.86-1.11,11.61-2.65,17.34-4.31,3.32-1.51,6.57-3.19,9.74-5,4.97-2.85,11.17-5.86,14.42-10.75,1.37-2.07,3.51-2.58,5.41-2.12,3.21-5.61,8.6-10.25,12.63-15.13,4.75-5.75,9.15-11.69,13.03-18.02-39.15,2.78-47.65,14.21-72.5,8.29Z"/>
      <path class="st4" d="M1136.18,476.58c-29.39.47-58.84-1-88.24-1.01-.57,0-1.09-.08-1.55-.22-12.72.39-25.43.58-38.15.39-.62.31-1.34.49-2.17.51-23.45.57-46.8-1.32-70.12-3.54-11.41-1.08-22.71-1.17-34.17-1.06-9.84.09-19.64-.73-29.46-.84,3.25,11.19,6.77,23.83,12.61,38.78,18.38,46.98,20.93,64.86,20.93,64.86v-.02s6.23,37.66,7.1,68.03c3.2-.02,6.26.77,9.53,1.16.63.07,1.23.23,1.79.46,15.66,0,31.3.81,46.94,1.81,6.29.4,12.58.75,18.86,1.06.37-.12.76-.21,1.18-.25,7.81-.84,15.63-1.48,23.49-1.53,1.84-.01,3.15.79,3.93,1.95,26.33-1.69,52.63-1.14,79-1.93,14.44-.44,28.85-1.36,43.29-1.76,7.24-.2,14.48-.31,21.72-.45,2.07-.04,4.63-.36,7-.18.84-30.42,7.12-68.34,7.12-68.34,0,0,2.55-17.88,20.94-64.86,5.46-13.95,8.88-25.89,11.96-36.52-24.54.46-48.99,3.14-73.53,3.54Z"/>
      <path class="st4" d="M1191.96,830.43c-2.55-22.47-15.32-92.77-15.32-92.77,0,0-5.67-48.33-6.86-79.89-7.83.44-15.66.88-23.5,1.24-7.19.33-14.38.74-21.57.86-4.87.08-9.9.54-14.76-.07-.43.15-.91.25-1.42.28-34.48,2.13-69.1,1.67-103.63,1.29-17.11-.19-34.23-.14-51.33-.75-8.31-.3-16.6-.81-24.91-1.1-5.29-.19-10.57-.37-15.81-.98-1.25,31.57-6.83,79.13-6.83,79.13,0,0-12.76,70.3-15.32,92.77-.94,8.29-2.3,18.05-3.7,28.71,1.86.15,3.7.47,5.34.74,1.38.23,2.75.5,4.12.79,6.76.03,13.52.17,20.28.4.31-.02.63-.04.93-.05,12.22-.45,24.45-.87,36.67-1.15,12.22-.28,24.37-.47,36.57.52,11.7.95,23.66.67,35.2,2.97.09.02.17.04.26.07,19.87-.89,39.75-1.77,59.65-1.82,23.75-.06,47.48,1.28,71.19-.81,1.54-.13,2.7.34,3.5,1.14,11.64-1.24,23.32-2.02,35.04-2.14-1.43-10.92-2.82-20.91-3.78-29.37Z"/>
      <path class="st4" d="M1093.01,1286.46c2.28-.04,4.52-.03,6.59-.05,8.88-.07,17.74.89,26.59,1.41.72.04,1.35.21,1.9.46,3.57-.09,7.15-.2,10.72-.33,10.59-.41,21.18-.88,31.77-1.36,7.38-.33,15.12-1.05,22.65-1.04.08-16.82.27-29.44.27-29.44,0,0,3.24-82.22,8.68-117.28,3.49-22.49,4.68-62.92,5.08-89.02-25.07,3.95-50.77,2.86-76.06,4.06-14.58.69-29.18,1.58-43.78,1.59-9.48,0-18.94-.49-28.41-.89,1.74,17.33,4.71,42.97,8.54,65.19,5.45,31.66,10.22,67.91,13.11,89.53,2.39,17.83,7.55,49.3,12.34,77.17Z"/>
      <path class="st4" d="M1203.03,1434.34c-.68-14.13-4.76-49.02-7.83-68.08-1.57-9.82-1.98-38.73-2-64.48-5.44.52-10.87,1.06-16.33,1.27-9.16.36-18.36.26-27.52.25-17.87-.02-35.74-.37-53.61-1.02.08.44.15.88.23,1.32,5.45,30.98,7.83,34.21,11.57,67.91,3.75,33.7.51,59.58.51,59.58h0c-2.75,21.44-2.44,50.53-1.76,70.38.34.18.7.33,1.05.49.51-.18,1.06-.26,1.63-.19,4.54.58,9.06,1.26,13.58,1.97.53.08,1.01.28,1.44.57,21.34-.02,42.68-.05,64.02-.07.83-.58,1.84-.95,2.92-1.06,4.71-.47,9.24-1.88,14-1.9.31-31.05-1.37-56.27-1.88-66.94Z"/>
      <path class="st4" d="M1143.79,1754.04c16.25.02,32.49.1,48.74.09-1.38-24.28-.18-54.21-.05-65.33.17-14.98,4.26-66.55,4.26-66.55,0,0,4.59-44.26,7.14-89.2.24-4.15.42-8.22.57-12.26-6.46-.1-12.93.21-19.4-.08-9.54-.42-19.07-1.1-28.61-1.46-16.46-.62-32.93-.4-49.4-.67.19,3.35.31,5.26.31,5.26l19.24,94.81s14.64,94.81,16.68,124.6c.25,3.66.41,7.23.52,10.78Z"/>
      <path class="st4" d="M1209.83,1826.66c-10.04-8.16-9.19-23.14-14.81-50.37-.09-.45-.18-.91-.27-1.37-16.96-.51-33.92-1.32-50.85-2.34-.37,19.06-1.93,38.83-2.83,64.64-1.37,38.98,8.68,36.43,8.68,36.43,0,0,86.63,7.15,88.17-5.79,1.53-12.93-28.09-41.19-28.09-41.19Z"/>
      <path class="st4" d="M1136.48,1035.18c13.56-.27,27.11-.27,40.67-.26,9.94,0,20.23-.91,30.27-.48.04-5.81.03-9.29.03-9.29,0,0-4.94-73.02-6.13-106.04-.5-13.87-1.78-27.77-3.29-40.89-8.51.43-17.04.42-25.57.42-12.48,0-24.95.1-37.43-.08-13.02-.19-25.98-.49-39-.05-11.5.39-22.99.96-34.49,1.11-.46.13-.96.21-1.51.21-30.46-.06-60.86-2.36-91.32-2.63-15.26-.13-30.56-.91-45.81-.85-12.7.05-25.36.91-37.92-1.08-1.66,13.98-3.1,28.92-3.63,43.83-1.19,33.02-6.13,106.04-6.13,106.04,0,0-.01,5.25.07,13.64,3.05.53,6.12.97,9.19,1.34,17.5-.11,35,.67,52.49,1.34,6.4-.14,12.8-.27,19.16-.29,14.49-.04,29-.37,43.4-2,8.46-.95,17.21-3.65,25.86-4.07,1.11-14.13,4.54-48.66,15.95-47.24,11.35-1.42,14.8,32.69,15.93,46.98,26.42.2,52.8.87,79.22.35Z"/>
      <path class="st4" d="M967.91,1298.76c-8.63.39-17.27.6-25.91.69-17.51.19-35.02-.08-52.53-.1,0,26.32-.38,56.77-2,66.91-3.06,19.06-7.15,53.95-7.83,68.08-.53,10.96-2.28,37.27-1.85,69.49,16.63,3.46,33.66,2.83,50.54,3.6,15.94.73,32.15,1.6,47.89-1.53.78-19.74,1.37-51.7-1.6-74.79,0,0-3.24-25.88.51-59.58,3.74-33.7,6.13-36.93,11.57-67.91.41-2.35.83-4.76,1.26-7.21-6.52,1.85-13.25,2.05-20.05,2.36h0Z"/>
      <path class="st4" d="M938.69,1768.12c-16.32,3.42-33.01-.22-49.47-1.03-.05,0-.1-.01-.16-.02-.39,3.36-.86,6.47-1.43,9.22-5.62,27.23-4.77,42.21-14.81,50.38,0,0-29.62,28.26-28.08,41.19,1.53,12.94,88.17,5.79,88.17,5.79,0,0,10.04,2.55,8.68-36.43-.97-27.83-2.73-48.64-2.91-69.11h0Z"/>
      <path class="st4" d="M928.33,1517.42c-16.83-.77-33.72-.34-50.34-3.39.17,6.19.43,12.55.79,19.02,2.55,44.94,7.15,89.2,7.15,89.2,0,0,4.08,51.57,4.25,66.55.13,11.59,1.43,43.57-.23,68.33,16.12.89,32.86,4.8,48.79.69.1-4.78.3-9.6.64-14.55,2.05-29.79,16.69-124.6,16.69-124.6l19.23-94.81s.2-2.88.45-7.75c-15.64,2.68-31.6,2.02-47.42,1.3h0Z"/>
      <path class="st4" d="M1020.87,1053.41c-6.31,1.49-13.34,1.23-19.78,1.1-14.47-.29-28.86-1.99-43.33-2.36-7.57-.19-15.14-.47-22.7-.76-16.86.28-33.73.56-50.46-1.26-3.06.02-6.11.07-9.17.15.41,26.11,1.59,66.21,5.07,88.57,5.45,35.06,8.68,117.28,8.68,117.28,0,0,.22,14.55.28,33.22,16.85.02,33.71.27,50.56.12,8.64-.07,17.28-.25,25.91-.62,7.65-.33,15.14-.37,22.4-3.07.54-.2,1.05-.3,1.54-.33,4.74-27.61,9.81-58.53,12.16-76.13,2.9-21.62,7.66-57.87,13.11-89.53,3.99-23.16,7.06-50.03,8.75-67.34-.97.37-1.97.71-3.01.96h0Z"/>
      <path class="st4" d="M1942.83,332.27h0c-1.17-3.45-8.02-9.2-34.19-11.24-26.17-2.04-41.87-.51-51.96-4.21-15.85-5.82-26.04-7.53-26.04-7.53-23.74-2.56-30.89,1.91-75.83-5.11-53.69-8.39-39.19-3.83-108.77-14.04-69.57-10.21-95.36-3.45-145.02.38-74.54,5.75-88.59,1.41-122.93,0-14.03-.57-34.14-3.03-52.99-5.72v102.27c9.7-.93,21.1-2.01,35.41-3.85,58.22-7.49,76.6-4.25,172.6-10.89,96-6.64,98.04-13.79,148.59-19.57,50.56-5.79,61.37-4.15,77.83-1.47,16.47,2.68,12.9,18.25,55.15,23.49,13.55,1.68,35.75,8.29,37.41-1.92s-34.34-25.02-34.34-25.02h1.53c22.34-3.45,22.87-7.63,34.85-8.81,32.99-3.25,70.21.51,72.77.51s8.29.13,10.72-.89c2.42-1.02,6.38-2.94,5.21-6.38Z"/>
      <path class="st4" d="M864.94,378.04c1.25-1,2.47-2.03,3.68-3.08,2.57-3.45,5.09-6.93,7.93-10.17,4.35-4.96,8.48-10.11,12.64-15.23-4.87-2.34-9.58-5.25-14.13-7.59-1.23-.63-1.96-1.53-2.3-2.52-.78.28-1.66.38-2.63.22-10.12-1.68-18.9-6.16-26.66-12.17-.09.1-.19.21-.28.31-9.2,10.29-13.23,25.32-17.28,38.2-2.12,6.74-3.94,13.74-6.77,20.22-1.95,4.47-4.89,8.46-8.25,12.03,6.06,2.53,12.68,5.73,20.34,9.85,9.48-11.85,21.88-20.62,33.71-30.07h0Z"/>
      <path class="st4" d="M1273.14,276.48h0c-1.62-.06-3.19-.1-4.73-.13-2.73,8.78-8.34,16.77-13.19,24.5-.61.97-1.23,1.94-1.87,2.91-1.24,2.01-2.46,4.02-3.54,6.1-5.14,9.91-14.48,16.9-23.94,22.44-20.42,11.96-40.73,25.49-64.6,27.4-.58.76-1.44,1.37-2.63,1.67-12.14,3.11-24.53,4.51-36.64,7.91-11.67,3.27-23.76,4.47-35.83,5.08-25.42,1.28-50.77,3.01-76.1-.48-.76-.1-1.39-.34-1.9-.66-11.06-.83-22.09-1.99-33.07-3.65-7.34-1.11-14.69-2.21-22.03-3.32-5.15-.77-11.38-1.02-16-3.77-7.79-1.26-15.52-2.71-23.2-4.5-4.89,6.01-11.95,10.28-17.04,16.21-5.89,6.87-10.89,14.53-16.43,21.69-5.48,7.08-11.54,13.06-18.41,18.79-3.23,2.69-6.67,5.28-9.63,8.27-.4.4-.79.81-1.17,1.22,3.37,4.45,5.83,9.03,8.36,13.41,3.65,6.31,6.31,12.86,8.67,19.92,8.93,1.94,18.37,1.44,27.47,1.6,9.55.17,19.11.05,28.67-.02,19.32-.15,38.37.54,57.65,1.55,38.07,2,76.17-.34,114.16-2.89.54-.21,1.15-.33,1.84-.33,23.44-.05,46.84-1.4,70.29-1.12,15.6.19,31.16-.2,46.73-.49,2.22-6.42,4.74-12.43,8.09-18.24,5.41-9.34,10.28-19.53,24.85-27.57,28-15.45,42.3-19.08,63.63-21.53v-105.65c-21.4-3.27-38.43-6.32-38.43-6.32Z"/>
      <path class="st4" d="M826.19,310.16c-1.13-1.39-1.38-2.94-1.08-4.36-6.91-8.57-11.37-18.93-14.72-29.35-.29,0-.57.02-.86.03,0,0-70.59,12.64-104.93,14.04-21.58.89-35.17,2.92-60.78,2.89.1,1.28-.23,2.59-.98,3.6.11,4.84-.93,9.62-1.34,14.53-.62,7.41-.95,14.94-.94,22.38,0,1.75.03,3.51.07,5.26.59,6.13,1.34,12.25,1.81,18.39.48,6.28-.7,13.62,1.5,19.63,26.83,1.03,46.69,1.94,78.23,6,39.99,5.15,57.19,4.29,78.44,11.19,4.61-4.31,8.36-9.06,10.54-15.13h0c2.27-6.31,4.14-12.77,6.18-19.16,3.88-12.18,8.14-25.03,15.65-35.53.92-1.29,1.97-2.46,3.03-3.62-3.48-3.38-6.74-7.03-9.81-10.81Z"/>
    </g>
  </g>
</svg>